<?xml version="1.0" encoding="UTF-8"?>
<svg id="Calque_2" data-name="Calque 2" xmlns="http://www.w3.org/2000/svg" viewBox="0 0 1500 1500">
  <defs>
    <style>
      .cls-1 {
        fill: #efe6d6;
      }

      .cls-2 {
        fill: #195f3b;
      }
    </style>
  </defs>
  <g id="_1_500xA0_1_500_px_Logo_2" data-name="1 500xA0 1 500 px Logo 2">
    <g id="Arrière-plan">
      <rect class="cls-2" width="1500" height="1500"/>
    </g>
    <g id="_Éléments_graphiques" data-name="Éléments graphiques">
      <g>
        <path class="cls-1" d="m611.96,752.53c-3.04,0-5.51-2.47-5.51-5.51v-154.3c0-39.71,15.99-77.91,43.87-104.81,26.94-25.99,62.34-40.3,99.68-40.3s72.13,14.07,98.97,39.62c28.33,26.97,44.58,64.86,44.58,103.97v155.8c0,3.04-2.47,5.51-5.51,5.51h-276.08Zm-2-6.99c0,1.92,1.56,3.48,3.48,3.48h273.11c1.92,0,3.48-1.56,3.48-3.48v-25.95h-280.08v25.96Zm32.95-33.83c0,2.41,1.96,4.37,4.37,4.37h238.39c2.41,0,4.37-1.96,4.37-4.37v-25.07h-247.13v25.07Zm107.08-260.57c-36.22,0-70.61,13.83-96.84,38.93-27.45,26.28-43.19,63.66-43.19,102.57v123.44h25.07c2.41,0,4.37-1.96,4.37-4.37v-27.06c0-.84.68-1.52,1.52-1.52h27.06c2.41,0,4.37-1.96,4.37-4.37v-27.06c0-.84.68-1.52,1.52-1.52h27.06c2.41,0,4.37-1.96,4.37-4.37v-27.06c0-.84.68-1.52,1.52-1.52h27.06c2.41,0,4.37-1.96,4.37-4.37v-27.06c0-.84.68-1.52,1.52-1.52h27.06c2.41,0,4.37-1.96,4.37-4.37v-27.06c0-.84.68-1.52,1.52-1.52h27.06c2.41,0,4.37-1.96,4.37-4.37v-27.06c0-.84.68-1.52,1.52-1.52h27.06c2.41,0,4.37-1.96,4.37-4.37v-27.06c0-.84.68-1.52,1.52-1.52h3.24l-2.49-2.07c-25.04-20.79-56.77-32.24-89.35-32.24Zm-74.14,227.62c0,2.41,1.96,4.37,4.37,4.37h205.45c2.41,0,4.37-1.96,4.37-4.37v-25.07h-214.18v25.07Zm32.95-32.95c0,2.41,1.96,4.37,4.37,4.37h172.5c2.41,0,4.37-1.96,4.37-4.37v-25.07h-181.24v25.07Zm32.95-32.95c0,2.41,1.96,4.37,4.37,4.37h139.56c2.41,0,4.37-1.96,4.37-4.37v-21.65c0-.6-.01-1.2-.02-1.8l-.03-1.62h-148.24v25.07Zm32.95-32.95c0,2.41,1.96,4.37,4.37,4.37h106.12c1.22,0,2.4-.52,3.23-1.42.82-.89,1.23-2.08,1.13-3.28-.68-8.03-2.06-16.06-4.12-23.87l-.23-.87h-110.5v25.07Zm32.95-32.95c0,2.41,1.96,4.37,4.37,4.37h66.18c1.43,0,2.73-.67,3.56-1.84.82-1.15,1.03-2.64.57-3.97-2.75-7.94-6.23-15.69-10.36-23.03l-.34-.6h-63.98v25.07Zm32.95-58.01v25.07c0,2.41,1.96,4.37,4.37,4.37h16.57c1.63,0,3.12-.9,3.88-2.35.76-1.44.65-3.16-.26-4.49-5.59-8.1-12.01-15.59-19.11-22.27l-.19-.18-.18-.06-.18-.09h-4.89Z"/>
        <path class="cls-1" d="m601.74,769.5c-6.77,0-12.25-5.49-12.25-12.25v-164.51c0-44.29,17.88-86.94,49.06-117.02,30.12-29.05,69.7-45.05,111.45-45.05s80.66,15.73,110.67,44.3c31.68,30.15,49.85,72.53,49.85,116.26v166.02c0,6.77-5.49,12.25-12.25,12.25h-296.52Zm148.26-335.32c-40.84,0-79.56,15.65-109.02,44.07-30.49,29.42-47.98,71.15-47.98,114.49v163.55c0,5.36,4.34,9.7,9.7,9.7h294.6c5.36,0,9.7-4.34,9.7-9.7v-165.06c0-42.78-17.77-84.23-48.76-113.72-29.35-27.94-67.8-43.33-108.25-43.33Z"/>
      </g>
    </g>
    <g id="Texte">
      <g id="MAISON_VERTE" data-name="MAISONVERTE">
        <path class="cls-1" d="m528.66,870.59c3.22,6.58,6.3,13.02,9.66,19.18h.28c3.78-6.58,7.28-13.86,10.78-21l13.16-26.74c6.3-12.74,10.36-20.44,10.64-26.88,4.76.42,7.7.42,10.5.42,3.5,0,8.12-.14,12.46-.42.84.56.84,2.94.14,3.5l-2.94.28c-8.82.84-9.94,3.5-9.8,13.3.28,14.84.42,40.74,1.54,60.9.42,7,.28,10.78,6.86,11.34l4.48.42c.84.84.7,2.94-.28,3.5-5.74-.28-11.48-.42-16.52-.42s-11.2.14-16.94.42c-.98-.7-1.12-2.66-.28-3.5l4.06-.42c6.86-.7,6.86-2.94,6.86-11.9l-.42-58.38h-.28c-.98,1.54-6.3,12.74-9.1,18.2l-12.46,24.5c-6.3,12.32-12.6,25.48-15.12,31.92-.28.42-.84.56-1.4.56-.28,0-.98-.14-1.26-.56-2.38-7.42-9.1-21.14-12.32-28l-12.6-27.02c-2.94-6.44-5.88-13.72-8.96-20.16h-.28c-.56,8.68-.98,16.8-1.4,24.92-.42,8.54-.98,21-.98,32.9,0,10.36.84,12.6,6.3,13.02l5.32.42c.98.84.84,3.08-.14,3.5-4.76-.28-10.22-.42-15.54-.42-4.48,0-9.52.14-14.28.42-.84-.7-1.12-2.8-.28-3.5l3.08-.42c5.88-.84,7.84-1.68,8.68-11.48.84-9.24,1.54-16.94,2.38-30.8.7-11.62,1.26-23.52,1.54-31.22.28-8.82-.84-10.92-9.38-12.04l-2.24-.28c-.7-.84-.56-2.94.56-3.5,4.2.28,7.56.42,11.06.42,3.22,0,7,0,11.62-.42-.56,5.46,2.94,14.14,7.28,23.1l15.96,32.34Z"/>
        <path class="cls-1" d="m658.86,875.49c-.98-3.08-1.54-3.5-5.74-3.5h-21.14c-3.5,0-4.34.42-5.32,3.36l-4.9,14.7c-2.1,6.3-3.08,10.08-3.08,11.62,0,1.68.7,2.52,4.06,2.8l4.62.42c.98.7.98,2.94-.28,3.5-3.64-.28-7.98-.28-14.56-.42-4.62,0-9.66.28-13.44.42-.84-.56-1.12-2.8-.28-3.5l4.62-.42c3.36-.28,6.44-1.82,8.4-6.86,2.52-6.44,6.44-15.54,12.32-31.22l14.28-37.8c1.96-5.04,2.8-7.7,2.38-9.94,3.36-.98,5.74-3.5,7.28-5.32.84,0,1.82.28,2.1,1.26,1.82,6.16,4.06,12.6,6.16,18.76l19.18,56.28c4.06,12.04,5.88,14.14,11.9,14.84l3.78.42c.98.7.7,2.94,0,3.5-5.74-.28-10.64-.42-16.94-.42-6.72,0-12.04.28-16.1.42-1.12-.56-1.26-2.8-.28-3.5l4.06-.42c2.94-.28,4.9-1.12,4.9-2.52,0-1.54-.7-4.06-1.82-7.42l-6.16-19.04Zm-27.72-12.46c-1.12,3.22-.98,3.36,2.94,3.36h17.22c4.06,0,4.34-.56,3.08-4.34l-7.56-22.82c-1.12-3.36-2.38-7.14-3.22-8.82h-.28c-.42.7-1.82,4.06-3.36,8.26l-8.82,24.36Z"/>
        <path class="cls-1" d="m707.02,836.85c0-14.84-.28-17.22-8.54-17.92l-3.5-.28c-.84-.56-.56-3.08.28-3.5,7,.28,11.76.42,17.64.42s10.36-.14,17.36-.42c.84.42,1.12,2.94.28,3.5l-3.5.28c-8.26.7-8.54,3.08-8.54,17.92v49.84c0,14.84.28,16.8,8.54,17.78l3.5.42c.84.56.56,3.08-.28,3.5-7-.28-11.76-.42-17.36-.42-5.88,0-10.64.14-17.64.42-.84-.42-1.12-2.66-.28-3.5l3.5-.42c8.26-.98,8.54-2.94,8.54-17.78v-49.84Z"/>
        <path class="cls-1" d="m767.78,910.21c-11.76,0-19.18-3.64-21.84-5.18-1.68-3.08-3.5-13.02-3.78-19.6.7-.98,2.8-1.26,3.36-.42,2.1,7.14,7.84,20.86,24.08,20.86,11.76,0,17.5-7.7,17.5-16.1,0-6.16-1.26-13.02-11.48-19.6l-13.3-8.68c-7-4.62-15.12-12.6-15.12-24.08,0-13.3,10.36-24.08,28.56-24.08,4.34,0,9.38.84,13.02,1.82,1.82.56,3.78.84,4.9.84,1.26,3.36,2.52,11.2,2.52,17.08-.56.84-2.8,1.26-3.5.42-1.82-6.72-5.6-15.82-19.04-15.82s-16.66,9.1-16.66,15.54c0,8.12,6.72,14,11.9,17.22l11.2,7c8.82,5.46,17.5,13.58,17.5,26.88,0,15.4-11.62,25.9-29.82,25.9Z"/>
        <path class="cls-1" d="m811.32,862.75c0-28,21-49.42,49.84-49.42,32.34,0,48.58,23.38,48.58,48.02,0,28.28-21.56,48.86-48.58,48.86-31.08,0-49.84-22.26-49.84-47.46Zm84.42,2.94c0-23.1-10.22-48.02-36.96-48.02-14.56,0-33.46,9.94-33.46,40.6,0,20.72,10.08,47.6,37.66,47.6,16.8,0,32.76-12.6,32.76-40.18Z"/>
        <path class="cls-1" d="m1009.42,884.17c0,4.2,0,20.86.42,24.5-.28.84-1.12,1.54-2.66,1.54-1.68-2.38-5.74-7.28-17.92-21.14l-32.48-36.96c-3.78-4.34-13.3-15.82-16.24-18.9h-.28c-.56,1.68-.7,4.9-.7,9.1v30.52c0,6.58.14,24.78,2.52,28.98.84,1.54,3.64,2.38,7.14,2.66l4.34.42c.84,1.12.7,2.8-.28,3.5-6.3-.28-11.2-.42-16.38-.42-5.88,0-9.66.14-14.56.42-.98-.7-1.12-2.66-.28-3.5l3.78-.42c3.22-.42,5.46-1.26,6.16-2.8,1.96-5.04,1.82-22.12,1.82-28.84v-40.46c0-3.92-.14-6.86-3.08-10.08-1.96-1.96-5.32-2.94-8.68-3.36l-2.38-.28c-.84-.84-.84-2.94.28-3.5,5.88.42,13.3.42,15.82.42,2.24,0,4.62-.14,6.44-.42,2.8,7.14,19.32,25.62,23.94,30.8l13.58,15.26c9.66,10.78,16.52,18.62,23.1,25.34h.28c.56-.7.56-2.94.56-5.88v-29.96c0-6.58-.14-24.78-2.8-28.98-.84-1.26-3.08-2.1-8.68-2.8l-2.38-.28c-.98-.84-.84-3.08.28-3.5,6.44.28,11.2.42,16.52.42,6.02,0,9.66-.14,14.42-.42,1.12.7,1.12,2.66.28,3.5l-1.96.28c-4.48.7-7.28,1.82-7.84,2.94-2.38,5.04-2.1,22.4-2.1,28.84v33.46Z"/>
        <path class="cls-1" d="m546.72,947.41c-3.22-7.84-5.32-10.78-11.34-11.48l-2.52-.28c-.98-.84-.84-2.8.28-3.5,4.06.28,8.54.42,14.56.42s11.06-.14,16.94-.42c.98.56,1.26,2.66.28,3.5l-2.1.28c-5.32.7-6.44,1.54-6.58,2.66.28,1.4,2.66,8.96,7,19.6,6.44,16.24,12.88,32.34,19.88,48.3,4.34-9.24,10.22-23.66,13.44-31.08,4.06-9.52,10.64-25.34,13.02-31.36,1.12-2.94,1.26-4.48,1.26-5.46s-1.4-2.1-6.3-2.66l-2.52-.28c-.98-.84-.7-2.94.28-3.5,3.92.28,9.24.42,14.56.42,4.62,0,8.96-.14,13.58-.42.98.56.98,2.8.28,3.5l-4.2.28c-3.36.28-5.46,1.96-7.28,4.9-3.92,6.58-9.38,17.92-15.68,32.2l-7.56,17.22c-5.6,12.88-12.18,29.12-14.56,36.54-.42.28-.98.42-1.54.42-.7,0-1.4-.14-2.1-.42-1.54-5.88-4.06-12.74-6.44-18.62l-24.64-60.76Z"/>
        <path class="cls-1" d="m645.28,953.57c0-14.56-.28-16.66-8.54-17.64l-2.24-.28c-.84-.56-.56-3.08.28-3.5,6.02.28,10.78.42,16.52.42h26.32c8.96,0,17.22,0,18.9-.42.84,2.38,1.68,12.46,2.24,18.62-.56.84-2.8,1.12-3.5.28-2.1-6.58-3.36-11.48-10.64-13.3-2.94-.7-7.42-.84-13.58-.84h-10.08c-4.2,0-4.2.28-4.2,5.6v28c0,3.92.42,3.92,4.62,3.92h8.12c5.88,0,10.22-.28,11.9-.84,1.68-.56,2.66-1.4,3.36-4.9l1.12-5.74c.7-.84,3.08-.84,3.64.14,0,3.36-.56,8.82-.56,14.14,0,5.04.56,10.36.56,13.44-.56.98-2.94.98-3.64.14l-1.26-5.46c-.56-2.52-1.54-4.62-4.34-5.32-1.96-.56-5.32-.7-10.78-.7h-8.12c-4.2,0-4.62.14-4.62,3.78v19.74c0,7.42.42,12.18,2.66,14.56,1.68,1.68,4.62,3.22,16.94,3.22,10.78,0,14.84-.56,17.92-2.1,2.52-1.4,6.3-6.3,9.94-13.58.98-.7,2.94-.28,3.5.98-.98,4.9-4.48,15.68-6.3,19.46-12.6-.28-25.06-.42-37.52-.42h-12.6c-6.02,0-10.78.14-19.04.42-.84-.42-1.12-2.66-.28-3.5l4.62-.42c7.98-.7,8.68-2.8,8.68-17.5v-50.4Z"/>
        <path class="cls-1" d="m727.04,953.71c0-13.3-.42-15.68-6.16-16.38l-4.48-.56c-.98-.7-.98-2.94.14-3.5,7.84-.7,17.5-1.12,31.22-1.12,8.68,0,16.94.7,23.38,4.2,6.72,3.5,11.62,9.8,11.62,19.6,0,13.3-10.5,20.58-17.5,23.38-.7.84,0,2.24.7,3.36,11.2,18.06,18.62,29.26,28.14,37.24,2.38,2.1,5.88,3.64,9.66,3.92.7.28.84,1.4.14,1.96-1.26.42-3.5.7-6.16.7-11.9,0-19.04-3.5-28.98-17.64-3.64-5.18-9.38-14.84-13.72-21.14-2.1-3.08-4.34-4.48-9.94-4.48-6.3,0-6.58.14-6.58,3.08v17.64c0,14.7.28,16.38,8.4,17.5l2.94.42c.84.7.56,3.08-.28,3.5-6.3-.28-11.06-.42-16.66-.42-5.88,0-10.92.14-17.5.42-.84-.42-1.12-2.52-.28-3.5l3.5-.42c8.12-.98,8.4-2.8,8.4-17.5v-50.26Zm11.48,20.02c0,2.52,0,4.06.42,4.62.42.42,2.52.7,9.66.7,5.04,0,10.36-.56,14.42-3.64,3.78-2.94,7-7.84,7-17.36,0-11.06-6.86-21.56-22.4-21.56-8.68,0-9.1.56-9.1,4.48v32.76Z"/>
        <path class="cls-1" d="m844.64,1003.97c0,14.7.28,16.8,8.4,17.5l4.48.42c.84.56.56,3.08-.28,3.5-7.98-.28-12.74-.42-18.34-.42s-10.5.14-19.46.42c-.84-.42-1.12-2.8,0-3.5l5.04-.42c7.98-.7,8.68-2.8,8.68-17.5v-62.58c0-4.34,0-4.48-4.2-4.48h-7.7c-6.02,0-13.72.28-17.22,3.5-3.36,3.08-4.76,6.16-6.3,9.66-1.12.84-3.08.14-3.64-.98,2.24-6.3,4.34-15.26,5.32-20.86.42-.28,2.24-.42,2.66,0,.84,4.48,5.46,4.34,11.9,4.34h56.7c7.56,0,8.82-.28,10.92-3.92.7-.28,2.24-.14,2.52.42-1.54,5.74-2.52,17.08-2.1,21.28-.56,1.12-2.94,1.12-3.64.28-.42-3.5-1.4-8.68-3.5-10.22-3.22-2.38-8.54-3.5-16.24-3.5h-9.94c-4.2,0-4.06.14-4.06,4.76v62.3Z"/>
        <path class="cls-1" d="m903.44,953.57c0-14.56-.28-16.66-8.54-17.64l-2.24-.28c-.84-.56-.56-3.08.28-3.5,6.02.28,10.78.42,16.52.42h26.32c8.96,0,17.22,0,18.9-.42.84,2.38,1.68,12.46,2.24,18.62-.56.84-2.8,1.12-3.5.28-2.1-6.58-3.36-11.48-10.64-13.3-2.94-.7-7.42-.84-13.58-.84h-10.08c-4.2,0-4.2.28-4.2,5.6v28c0,3.92.42,3.92,4.62,3.92h8.12c5.88,0,10.22-.28,11.9-.84,1.68-.56,2.66-1.4,3.36-4.9l1.12-5.74c.7-.84,3.08-.84,3.64.14,0,3.36-.56,8.82-.56,14.14,0,5.04.56,10.36.56,13.44-.56.98-2.94.98-3.64.14l-1.26-5.46c-.56-2.52-1.54-4.62-4.34-5.32-1.96-.56-5.32-.7-10.78-.7h-8.12c-4.2,0-4.62.14-4.62,3.78v19.74c0,7.42.42,12.18,2.66,14.56,1.68,1.68,4.62,3.22,16.94,3.22,10.78,0,14.84-.56,17.92-2.1,2.52-1.4,6.3-6.3,9.94-13.58.98-.7,2.94-.28,3.5.98-.98,4.9-4.48,15.68-6.3,19.46-12.6-.28-25.06-.42-37.52-.42h-12.6c-6.02,0-10.78.14-19.04.42-.84-.42-1.12-2.66-.28-3.5l4.62-.42c7.98-.7,8.68-2.8,8.68-17.5v-50.4Z"/>
      </g>
      <g>
        <path d="m1216.04,773.79h1.04v7.21h3.45v.88h-4.5v-8.08Z"/>
        <path d="m1226.76,778.92c0,2.15-1.49,3.08-2.89,3.08-1.57,0-2.78-1.15-2.78-2.99,0-1.94,1.27-3.08,2.88-3.08s2.79,1.21,2.79,2.99Zm-4.61.06c0,1.27.73,2.23,1.76,2.23s1.76-.95,1.76-2.25c0-.98-.49-2.23-1.74-2.23s-1.79,1.15-1.79,2.25Z"/>
        <path d="m1228.09,777.88c0-.68-.01-1.27-.05-1.81h.92l.04,1.14h.05c.26-.78.9-1.27,1.61-1.27.12,0,.2.01.3.04v1c-.11-.02-.22-.04-.36-.04-.74,0-1.27.56-1.42,1.36-.02.14-.05.31-.05.49v3.09h-1.04v-3.99Z"/>
        <path d="m1232.48,779.16c.02,1.43.94,2.01,1.99,2.01.76,0,1.21-.13,1.61-.3l.18.76c-.37.17-1.01.36-1.93.36-1.79,0-2.85-1.18-2.85-2.93s1.03-3.13,2.72-3.13c1.89,0,2.4,1.67,2.4,2.73,0,.22-.02.38-.04.49h-4.08Zm3.09-.76c.01-.67-.28-1.71-1.46-1.71-1.07,0-1.54.98-1.62,1.71h3.08Z"/>
        <path d="m1237.91,777.64c0-.6-.01-1.09-.05-1.57h.92l.05.94h.04c.32-.55.86-1.07,1.82-1.07.79,0,1.39.48,1.64,1.16h.02c.18-.32.41-.58.65-.76.35-.26.73-.41,1.28-.41.77,0,1.91.5,1.91,2.52v3.42h-1.03v-3.29c0-1.12-.41-1.79-1.26-1.79-.6,0-1.07.44-1.25.96-.05.14-.08.34-.08.53v3.59h-1.03v-3.48c0-.92-.41-1.6-1.21-1.6-.66,0-1.14.53-1.31,1.06-.06.16-.08.34-.08.52v3.5h-1.03v-4.23Z"/>
        <path d="m1251.63,774.43c.01.36-.25.65-.67.65-.37,0-.64-.29-.64-.65s.28-.66.66-.66.65.29.65.66Zm-1.17,7.44v-5.8h1.05v5.8h-1.05Z"/>
        <path d="m1253.27,777.96c0-.74-.02-1.34-.05-1.9h.95l.05,1h.02c.43-.71,1.12-1.13,2.06-1.13,1.4,0,2.46,1.19,2.46,2.95,0,2.09-1.27,3.12-2.64,3.12-.77,0-1.44-.34-1.79-.91h-.02v3.15h-1.04v-6.28Zm1.04,1.55c0,.16.02.3.05.43.19.73.83,1.24,1.58,1.24,1.12,0,1.76-.91,1.76-2.24,0-1.16-.61-2.16-1.73-2.16-.72,0-1.39.52-1.59,1.31-.04.13-.07.29-.07.43v1Z"/>
        <path d="m1259.95,780.79c.31.2.86.42,1.39.42.77,0,1.13-.38,1.13-.86,0-.5-.3-.78-1.08-1.07-1.04-.37-1.54-.95-1.54-1.64,0-.94.76-1.7,2-1.7.59,0,1.1.17,1.43.36l-.26.77c-.23-.14-.65-.34-1.19-.34-.62,0-.97.36-.97.79,0,.48.35.7,1.1.98,1.01.38,1.52.89,1.52,1.75,0,1.02-.79,1.74-2.17,1.74-.64,0-1.22-.16-1.63-.4l.26-.8Z"/>
        <path d="m1269.7,780.29c0,.6.01,1.13.05,1.58h-.94l-.06-.95h-.02c-.28.47-.89,1.08-1.92,1.08-.91,0-2-.5-2-2.54v-3.39h1.05v3.21c0,1.1.34,1.85,1.3,1.85.71,0,1.2-.49,1.39-.96.06-.16.1-.35.1-.54v-3.56h1.05v4.22Z"/>
        <path d="m1271.46,777.64c0-.6-.01-1.09-.05-1.57h.92l.05.94h.04c.32-.55.86-1.07,1.82-1.07.79,0,1.39.48,1.64,1.16h.02c.18-.32.41-.58.65-.76.35-.26.73-.41,1.28-.41.77,0,1.91.5,1.91,2.52v3.42h-1.03v-3.29c0-1.12-.41-1.79-1.26-1.79-.6,0-1.07.44-1.25.96-.05.14-.08.34-.08.53v3.59h-1.03v-3.48c0-.92-.41-1.6-1.21-1.6-.66,0-1.14.53-1.31,1.06-.06.16-.08.34-.08.52v3.5h-1.03v-4.23Z"/>
      </g>
    </g>
  </g>
</svg>